<?xml version="1.0" standalone="no"?>
<!DOCTYPE svg PUBLIC "-//W3C//DTD SVG 20010904//EN"
 "http://www.w3.org/TR/2001/REC-SVG-20010904/DTD/svg10.dtd">
<svg version="1.0" xmlns="http://www.w3.org/2000/svg"
 width="512.000000pt" height="512.000000pt" viewBox="0 0 512.000000 512.000000"
 preserveAspectRatio="xMidYMid meet">

<g transform="translate(0.000000,512.000000) scale(0.100000,-0.100000)"
fill="#000000" stroke="none">
<path d="M2165 5090 c-595 -50 -966 -292 -1098 -715 -51 -164 -60 -395 -21
-540 68 -255 276 -501 543 -643 93 -50 90 -36 39 -202 -48 -152 -110 -263
-198 -351 -71 -71 -172 -142 -224 -155 -13 -3 -69 10 -133 30 -61 20 -142 40
-179 45 -202 24 -413 -57 -549 -212 -87 -99 -155 -281 -155 -412 0 -128 62
-297 146 -401 25 -31 44 -57 42 -58 -2 -2 -28 -16 -58 -32 -30 -16 -89 -63
-131 -104 -196 -193 -243 -477 -120 -725 68 -136 185 -245 322 -301 83 -34
271 -85 457 -124 144 -30 154 -31 178 -15 37 24 49 57 33 91 -17 34 -43 44
-209 79 -181 38 -366 91 -437 125 -165 81 -277 283 -259 466 17 169 107 304
255 383 87 46 91 44 91 -40 0 -219 105 -405 279 -492 289 -145 616 -42 756
237 19 38 35 75 35 83 0 12 8 14 32 10 18 -3 78 -11 133 -17 55 -7 103 -17
107 -23 4 -7 8 -32 8 -57 1 -210 163 -423 370 -484 72 -22 218 -22 290 0 131
39 258 141 316 255 32 64 64 188 64 249 l0 48 118 13 c162 19 150 22 175 -41
103 -253 379 -390 649 -321 102 26 165 60 237 127 103 95 157 220 168 391 4
57 10 93 17 93 31 0 124 -56 178 -107 104 -100 148 -203 148 -348 0 -192 -99
-348 -273 -430 -134 -64 -485 -147 -842 -199 -693 -102 -1250 -115 -1850 -45
-286 34 -297 35 -319 10 -26 -28 -25 -77 2 -103 24 -25 88 -35 397 -67 543
-57 1005 -48 1605 29 442 58 900 159 1068 236 131 60 234 158 297 284 38 76
52 120 65 214 9 57 20 84 62 149 194 303 309 710 325 1152 6 186 -10 488 -32
598 -27 133 -105 235 -223 290 -61 29 -76 32 -162 32 -86 0 -101 -3 -162 -32
-138 -65 -201 -156 -237 -343 -11 -58 -25 -128 -31 -156 l-11 -50 -67 33
c-104 51 -178 66 -306 61 -92 -4 -126 -10 -201 -36 -120 -42 -303 -86 -510
-122 -164 -29 -434 -64 -441 -58 -1 2 17 53 41 113 53 133 106 323 142 506
l26 136 77 32 c334 136 600 421 673 722 33 136 30 327 -8 474 -42 158 -134
330 -187 347 -37 13 -80 -9 -93 -45 -8 -24 -5 -36 15 -70 61 -107 101 -198
119 -277 69 -303 5 -541 -201 -756 -162 -169 -389 -288 -656 -344 -124 -27
-374 -37 -497 -21 -580 75 -992 425 -1012 861 -20 411 209 725 619 850 l57 18
32 -57 c52 -94 125 -185 214 -270 102 -96 173 -134 263 -139 57 -4 71 -1 136
31 122 61 260 204 351 362 l42 74 86 -30 c48 -16 114 -42 147 -59 33 -16 73
-30 90 -30 61 0 93 77 50 120 -65 65 -329 153 -553 185 -132 18 -410 26 -542
15z m395 -155 c58 -3 120 -9 138 -13 l33 -7 -39 -60 c-74 -113 -195 -235 -268
-270 -18 -8 -45 -15 -62 -15 -40 0 -137 66 -203 138 -52 57 -149 189 -149 203
0 4 19 11 43 15 57 9 290 21 352 18 28 -2 97 -6 155 -9z m-532 -1906 c135 -29
446 -37 587 -15 55 8 114 18 132 22 l31 6 -13 -68 c-38 -199 -93 -383 -162
-540 l-44 -101 -87 -7 c-114 -8 -445 9 -641 34 -191 25 -401 61 -401 69 0 4
23 24 50 46 134 106 242 289 307 519 l26 93 59 -18 c33 -11 103 -28 156 -40z
m2737 -140 c52 -13 119 -67 144 -118 27 -53 39 -125 52 -316 24 -355 -14 -710
-105 -988 -34 -103 -143 -348 -155 -346 -3 0 -21 32 -40 72 -42 87 -157 207
-241 251 -30 16 -56 30 -58 31 -2 2 22 36 53 76 101 134 148 311 125 467 -16
101 -60 214 -111 280 l-40 54 20 86 c11 48 27 130 36 182 26 158 77 234 179
266 52 16 86 17 141 3z m-421 -742 c34 -72 46 -127 46 -212 0 -127 -37 -227
-117 -315 -87 -97 -157 -132 -397 -201 -520 -147 -1243 -230 -1751 -200 -578
35 -1251 162 -1511 286 -185 89 -297 299 -265 497 14 91 65 198 122 258 l43
45 7 -75 c8 -93 37 -171 86 -232 75 -93 172 -150 289 -169 91 -14 189 6 304
63 113 55 240 179 290 283 19 39 35 71 36 73 2 3 278 -34 322 -44 18 -3 22
-11 22 -40 0 -114 47 -279 106 -372 101 -158 289 -250 453 -222 237 39 398
239 431 533 6 50 13 93 15 96 3 2 58 12 122 21 65 10 139 21 165 25 l46 7 27
-56 c91 -193 300 -344 510 -371 156 -19 352 91 425 239 33 66 55 173 46 221
-5 28 -3 27 48 -27 30 -31 65 -81 80 -111z m-1637 -37 c-25 -292 -250 -467
-465 -360 -123 62 -196 189 -215 375 l-5 50 345 0 345 0 -5 -65z m-1901 -833
c127 -37 395 -98 524 -118 41 -6 79 -15 84 -20 15 -13 -46 -109 -106 -164 -95
-89 -221 -121 -351 -91 -190 45 -286 160 -304 365 -6 70 -5 74 13 69 10 -3 74
-22 140 -41z m3279 -24 c-16 -147 -63 -243 -150 -303 -147 -101 -351 -99 -487
4 -50 38 -116 129 -120 165 -3 23 2 25 127 48 170 31 396 84 515 121 52 16
101 30 108 31 11 1 12 -13 7 -66z"/>
<path d="M1590 4490 c-26 -26 -26 -81 0 -105 21 -19 185 -54 257 -55 33 0 46
5 62 26 27 34 26 57 -2 89 -19 22 -39 30 -127 46 -135 24 -165 24 -190 -1z"/>
<path d="M2950 4489 c-52 -10 -96 -18 -97 -18 -1 -1 -11 -11 -23 -23 -26 -28
-26 -58 1 -92 25 -32 60 -33 204 -7 76 15 103 24 117 41 24 29 23 75 -2 100
-25 25 -68 25 -200 -1z"/>
<path d="M1680 4298 c-17 -18 -20 -35 -20 -108 0 -94 12 -123 55 -134 29 -7
79 15 89 39 3 9 6 54 6 99 0 69 -3 86 -20 104 -28 30 -82 30 -110 0z"/>
<path d="M2950 4300 c-17 -17 -20 -33 -20 -110 0 -83 2 -93 25 -115 28 -29 45
-31 84 -10 37 19 41 31 41 124 0 64 -4 83 -21 105 -26 33 -79 36 -109 6z"/>
<path d="M2055 4180 c-35 -14 -49 -40 -47 -86 5 -119 123 -217 242 -201 l40 5
0 -163 c0 -176 0 -177 -57 -190 -61 -13 -83 -82 -40 -123 30 -28 89 -29 138
-3 36 20 37 20 77 0 57 -28 118 -23 145 13 33 44 5 103 -54 115 -50 10 -54 24
-57 194 l-4 157 59 -5 c50 -4 66 -1 113 24 74 38 112 93 118 170 3 50 1 61
-17 77 -31 29 -79 25 -108 -8 -12 -15 -23 -38 -23 -51 0 -45 -58 -77 -99 -56
-11 6 -26 30 -32 54 -16 55 -40 80 -78 80 -41 0 -67 -25 -80 -77 -8 -34 -17
-46 -41 -56 -47 -19 -77 -1 -91 54 -16 64 -58 95 -104 76z"/>
</g>
</svg>
