<?xml version="1.0" standalone="no"?>
<!DOCTYPE svg PUBLIC "-//W3C//DTD SVG 20010904//EN"
 "http://www.w3.org/TR/2001/REC-SVG-20010904/DTD/svg10.dtd">
<svg version="1.0" xmlns="http://www.w3.org/2000/svg"
 width="512.000000pt" height="512.000000pt" viewBox="0 0 512.000000 512.000000"
 preserveAspectRatio="xMidYMid meet">

<g transform="translate(0.000000,512.000000) scale(0.100000,-0.100000)"
fill="#000000" stroke="none">
<path d="M4122 4869 c3 -264 5 -270 84 -309 52 -26 81 -25 134 3 73 38 80 63
80 269 0 171 -1 178 -21 189 -38 20 -187 68 -235 75 l-45 6 3 -233z"/>
<path d="M1425 4949 c-160 -17 -327 -63 -493 -136 -117 -52 -113 -43 -56 -153
194 -374 710 -447 1009 -145 102 103 167 239 181 378 l7 67 -284 -1 c-156 -1
-320 -5 -364 -10z"/>
<path d="M4200 4191 c-73 -39 -75 -45 -78 -307 -2 -170 0 -234 8 -234 25 0
168 41 225 64 l60 24 3 184 c2 178 2 186 -20 218 -45 66 -130 88 -198 51z"/>
<path d="M280 3740 c-67 -11 -209 -55 -233 -72 -26 -20 -40 -123 -40 -303 0
-327 87 -614 270 -888 70 -105 242 -293 325 -353 45 -34 50 -35 85 -24 63 20
183 88 251 143 128 102 236 266 284 433 33 115 33 335 0 448 -104 360 -416
606 -787 621 -55 2 -125 0 -155 -5z"/>
<path d="M2515 2386 c-114 -36 -193 -84 -275 -166 -108 -108 -168 -230 -185
-381 l-7 -56 384 -6 c210 -4 499 -7 641 -7 l257 0 0 25 c0 60 -34 186 -72 264
-77 160 -238 290 -414 335 -92 24 -242 20 -329 -8z"/>
<path d="M4115 1442 l-50 -7 -8 -70 c-15 -136 -95 -253 -212 -311 -41 -19 -92
-32 -193 -45 -211 -29 -196 -25 -211 -62 -87 -216 -97 -420 -30 -620 34 -102
68 -168 137 -258 l46 -62 125 6 c340 16 642 137 900 361 139 121 274 297 352
460 l37 80 -30 60 c-111 221 -313 385 -549 445 -85 22 -237 33 -314 23z"/>
<path d="M1342 704 c-343 -45 -625 -84 -627 -86 -7 -7 23 -154 41 -198 73
-184 225 -323 414 -382 111 -34 265 -32 375 6 178 61 308 179 385 349 37 83
51 154 51 263 0 148 80 142 -639 48z"/>
</g>
</svg>
